<svg xmlns="http://www.w3.org/2000/svg" width="1280" height="640" viewBox="0 0 1280 640">
  <defs>
    <linearGradient id="bg" x1="0" x2="1" y1="0" y2="1">
      <stop offset="0%" stop-color="#0b1020"/>
      <stop offset="55%" stop-color="#162447"/>
      <stop offset="100%" stop-color="#1f4068"/>
    </linearGradient>
    <linearGradient id="accent" x1="0" x2="1">
      <stop offset="0%" stop-color="#4fd1c5"/>
      <stop offset="50%" stop-color="#63b3ed"/>
      <stop offset="100%" stop-color="#f6ad55"/>
    </linearGradient>
  </defs>

  <rect width="1280" height="640" fill="url(#bg)"/>
  <circle cx="1120" cy="120" r="180" fill="#ffffff" opacity="0.04"/>
  <circle cx="170" cy="560" r="250" fill="#ffffff" opacity="0.03"/>
  <rect x="64" y="72" width="1152" height="496" rx="28" fill="#0f172a" opacity="0.78" stroke="#60a5fa" stroke-opacity="0.28"/>

  <text x="108" y="170" fill="#e5e7eb" font-family="Segoe UI, Arial, sans-serif" font-size="64" font-weight="700">flux-sim</text>
  <text x="110" y="222" fill="#93c5fd" font-family="Segoe UI, Arial, sans-serif" font-size="26">
    structural code analysis → effective computational-physics model → Monte Carlo solver
  </text>

  <rect x="108" y="280" width="300" height="180" rx="18" fill="#111827" stroke="#22d3ee" stroke-opacity="0.35"/>
  <rect x="490" y="280" width="300" height="180" rx="18" fill="#111827" stroke="#34d399" stroke-opacity="0.35"/>
  <rect x="872" y="280" width="300" height="180" rx="18" fill="#111827" stroke="#a78bfa" stroke-opacity="0.35"/>

  <text x="132" y="336" fill="#e5e7eb" font-family="Segoe UI, Arial, sans-serif" font-size="28" font-weight="600">analysis</text>
  <text x="132" y="378" fill="#cbd5e1" font-family="Consolas, monospace" font-size="21">functions • loops • recursion</text>
  <text x="132" y="412" fill="#cbd5e1" font-family="Consolas, monospace" font-size="21">crypto • numerical • ml</text>

  <text x="514" y="336" fill="#e5e7eb" font-family="Segoe UI, Arial, sans-serif" font-size="28" font-weight="600">effective physics</text>
  <text x="514" y="378" fill="#cbd5e1" font-family="Consolas, monospace" font-size="21">lindblad-inspired metrics</text>
  <text x="514" y="412" fill="#cbd5e1" font-family="Consolas, monospace" font-size="21">entropy • runtime dilation</text>

  <text x="896" y="336" fill="#e5e7eb" font-family="Segoe UI, Arial, sans-serif" font-size="28" font-weight="600">outputs</text>
  <text x="896" y="378" fill="#cbd5e1" font-family="Consolas, monospace" font-size="21">JSON report</text>
  <text x="896" y="412" fill="#cbd5e1" font-family="Consolas, monospace" font-size="21">PNG visualization</text>

  <path d="M 408 370 C 442 370, 456 370, 490 370" stroke="url(#accent)" stroke-width="6" fill="none"/>
  <path d="M 790 370 C 824 370, 838 370, 872 370" stroke="url(#accent)" stroke-width="6" fill="none"/>

  <rect x="108" y="510" width="930" height="12" rx="6" fill="#1f2937"/>
  <rect x="108" y="510" width="760" height="12" rx="6" fill="url(#accent)"/>
</svg>